<svg xmlns="http://www.w3.org/2000/svg" version="1.1" xmlns:xlink="http://www.w3.org/1999/xlink" viewBox="0 0 200 200"><rect width="200" height="200" fill="url('#gradient')"></rect><defs><linearGradient id="gradient" gradientTransform="rotate(45 0.5 0.5)"><stop offset="0%" stop-color="#4a5e75"></stop><stop offset="100%" stop-color="#2a7fb9"></stop></linearGradient></defs><g><g fill="#de2d24" transform="matrix(2.270789700628311,0,0,2.270789700628311,9.532869771513965,117.04215905518606)" stroke="#ec7313" stroke-width="0.2"><path d="M10.11-14.22L12.09-5.30L13.72-14.22L17.12-14.22L14.10 0L10.55 0L8.64-8.11L6.78 0L3.23 0L0.21-14.22L3.61-14.22L5.24-5.30L7.20-14.22L10.11-14.22ZM23.12 0.20L23.12 0.20Q20.68 0.20 19.18-1.25Q17.68-2.71 17.68-5.03L17.68-5.03L17.68-5.30Q17.68-6.92 18.28-8.16Q18.88-9.40 20.03-10.08Q21.18-10.76 22.76-10.76L22.76-10.76Q24.99-10.76 26.28-9.38Q27.57-8.00 27.57-5.53L27.57-5.53L27.57-4.25L21.03-4.25Q21.20-3.36 21.80-2.85Q22.39-2.34 23.34-2.34L23.34-2.34Q24.90-2.34 25.78-3.44L25.78-3.44L27.29-1.66Q26.67-0.81 25.54-0.31Q24.41 0.20 23.12 0.20ZM22.74-8.22L22.74-8.22Q21.30-8.22 21.03-6.31L21.03-6.31L24.35-6.31L24.35-6.56Q24.37-7.35 23.95-7.79Q23.53-8.22 22.74-8.22ZM38.70-5.36L38.70-5.20Q38.70-2.60 37.63-1.20Q36.55 0.20 34.60 0.20L34.60 0.20Q32.99 0.20 32.00-1.08L32.00-1.08L31.87 0L28.92 0L28.92-15L32.21-15L32.21-9.72Q33.13-10.76 34.58-10.76L34.58-10.76Q36.55-10.76 37.63-9.35Q38.70-7.93 38.70-5.36L38.70-5.36ZM35.40-5.40L35.40-5.40Q35.40-6.92 35.00-7.57Q34.59-8.22 33.75-8.22L33.75-8.22Q32.64-8.22 32.21-7.37L32.21-7.37L32.21-3.17Q32.63-2.33 33.77-2.33L33.77-2.33Q34.93-2.33 35.24-3.47L35.24-3.47Q35.40-4.02 35.40-5.40ZM48.94-14.22L48.94 0L45.52 0L45.52-14.22L48.94-14.22ZM51.10-10.57L54.19-10.57L54.30-9.33Q55.39-10.76 57.31-10.76L57.31-10.76Q58.96-10.76 59.78-9.78Q60.60-8.79 60.63-6.81L60.63-6.81L60.63 0L57.32 0L57.32-6.67Q57.32-7.47 57.00-7.85Q56.68-8.22 55.83-8.22L55.83-8.22Q54.86-8.22 54.39-7.46L54.39-7.46L54.39 0L51.10 0L51.10-10.57ZM66.47 0L63.17 0L63.17-8.28L61.64-8.28L61.64-10.57L63.17-10.57L63.17-11.41Q63.17-13.21 64.24-14.21Q65.30-15.21 67.23-15.21L67.23-15.21Q67.93-15.21 68.77-15L68.77-15L68.78-12.58Q68.48-12.67 67.97-12.67L67.97-12.67Q66.47-12.67 66.47-11.38L66.47-11.38L66.47-10.57L68.54-10.57L68.54-8.28L66.47-8.28L66.47 0ZM69.29-4.82L69.28-5.38Q69.28-6.96 69.89-8.20Q70.51-9.43 71.66-10.10Q72.81-10.76 74.37-10.76L74.37-10.76Q76.74-10.76 78.11-9.29Q79.47-7.82 79.47-5.29L79.47-5.29L79.47-5.18Q79.47-2.71 78.10-1.25Q76.73 0.20 74.38 0.20L74.38 0.20Q72.13 0.20 70.76-1.16Q69.39-2.51 69.29-4.82L69.29-4.82ZM72.58-5.77L72.57-5.18Q72.57-3.71 73.03-3.03Q73.49-2.34 74.38-2.34L74.38-2.34Q76.14-2.34 76.18-5.05L76.18-5.05L76.18-5.38Q76.18-8.22 74.37-8.22L74.37-8.22Q72.71-8.22 72.58-5.77L72.58-5.77Z"></path></g></g></svg>